<?xml version="1.0" encoding="UTF-8" standalone="no"?>
<!-- Created with Inkscape (http://www.inkscape.org/) -->

<svg
   width="102.84mm"
   height="102.84mm"
   viewBox="0 0 102.84 102.84"
   version="1.1"
   id="svg5"
   inkscape:version="1.2.1 (9c6d41e, 2022-07-14)"
   sodipodi:docname="logoMagicHarvest.svg"
   xmlns:inkscape="http://www.inkscape.org/namespaces/inkscape"
   xmlns:sodipodi="http://sodipodi.sourceforge.net/DTD/sodipodi-0.dtd"
   xmlns="http://www.w3.org/2000/svg"
   xmlns:svg="http://www.w3.org/2000/svg">
  <sodipodi:namedview
     id="namedview7"
     pagecolor="#ffffff"
     bordercolor="#666666"
     borderopacity="1.0"
     inkscape:pageshadow="2"
     inkscape:pageopacity="0.0"
     inkscape:pagecheckerboard="0"
     inkscape:document-units="mm"
     showgrid="false"
     inkscape:zoom="1.1326109"
     inkscape:cx="65.335765"
     inkscape:cy="133.76174"
     inkscape:window-width="1920"
     inkscape:window-height="1014"
     inkscape:window-x="0"
     inkscape:window-y="34"
     inkscape:window-maximized="1"
     inkscape:current-layer="layer1"
     fit-margin-top="0"
     fit-margin-left="0"
     fit-margin-right="0"
     fit-margin-bottom="0"
     inkscape:showpageshadow="2"
     inkscape:deskcolor="#d1d1d1" />
  <defs
     id="defs2">
    <clipPath
       clipPathUnits="userSpaceOnUse"
       id="clipPath32714-8">
      <path
         sodipodi:type="star"
         style="fill:#f0f8fa;fill-opacity:1;stroke-width:5.53701;stroke-linejoin:bevel"
         id="path32716-7"
         inkscape:flatsided="true"
         sodipodi:sides="4"
         sodipodi:cx="328.95694"
         sodipodi:cy="334.28955"
         sodipodi:r1="194.34247"
         sodipodi:r2="137.42088"
         sodipodi:arg1="0"
         sodipodi:arg2="0.78539816"
         inkscape:rounded="0"
         inkscape:randomized="0"
         transform="matrix(0.26458333,0,0,0.26458333,-35.616745,-37.027665)"
         inkscape:transform-center-x="1.0965231e-06"
         inkscape:transform-center-y="-1.1142985e-06"
         d="M 523.29941,334.28955 328.95694,528.63202 134.61447,334.28955 328.95694,139.94708 Z" />
    </clipPath>
  </defs>
  <g
     inkscape:label="Calque 1"
     inkscape:groupmode="layer"
     id="layer1"
     transform="translate(18.0584,-123.15707)">
    <path
       sodipodi:type="star"
       style="fill:#abdae1;fill-opacity:1;stroke-width:5.53701;stroke-linecap:butt;stroke-linejoin:bevel"
       id="path846-0"
       inkscape:flatsided="true"
       sodipodi:sides="4"
       sodipodi:cx="328.95694"
       sodipodi:cy="334.28955"
       sodipodi:r1="194.34247"
       sodipodi:r2="137.42088"
       sodipodi:arg1="0"
       sodipodi:arg2="0.78539816"
       inkscape:rounded="0"
       inkscape:randomized="0"
       transform="matrix(0.25327664,0,0,0.25327664,-52.153101,87.711746)"
       inkscape:transform-center-x="1.0965231e-06"
       inkscape:transform-center-y="-1.1142985e-06"
       d="M 523.29941,334.28955 328.95694,528.63202 134.61447,334.28955 328.95694,139.94708 Z" />
    <path
       sodipodi:type="star"
       style="fill:#eceff4;fill-opacity:1;stroke-width:5.53701;stroke-linecap:butt;stroke-linejoin:bevel"
       id="path846-7-69"
       inkscape:flatsided="true"
       sodipodi:sides="4"
       sodipodi:cx="328.95694"
       sodipodi:cy="334.28955"
       sodipodi:r1="194.34247"
       sodipodi:r2="137.42088"
       sodipodi:arg1="0"
       sodipodi:arg2="0.78539816"
       inkscape:rounded="0"
       inkscape:randomized="0"
       transform="matrix(0.25327664,0,0,0.25327664,-52.153101,87.711746)"
       inkscape:transform-center-x="1.0965231e-06"
       inkscape:transform-center-y="-1.1142985e-06"
       d="M 523.29941,334.28955 328.95694,528.63202 134.61447,334.28955 328.95694,139.94708 Z" />
    <path
       sodipodi:type="star"
       style="fill:#fffafa;fill-opacity:1;stroke-width:5.53701;stroke-linecap:butt;stroke-linejoin:bevel"
       id="path846-7-6-4"
       inkscape:flatsided="true"
       sodipodi:sides="4"
       sodipodi:cx="328.95694"
       sodipodi:cy="334.28955"
       sodipodi:r1="194.34247"
       sodipodi:r2="137.42088"
       sodipodi:arg1="0"
       sodipodi:arg2="0.78539816"
       inkscape:rounded="0"
       inkscape:randomized="0"
       transform="matrix(0.13794613,-0.11533051,-0.11533051,0.13794613,51.14826,191.0131)"
       inkscape:transform-center-x="-1.2564354e-06"
       inkscape:transform-center-y="-2.8760282e-06"
       d="M 523.29941,334.28955 328.95694,528.63202 134.61447,334.28955 328.95694,139.94708 Z" />
    <g
       aria-label="LANDIS-II"
       transform="rotate(-45)"
       id="text1921-9"
       style="font-size:6.75405px;fill:#bc4749;stroke-width:0.253276;stroke-linejoin:round">
      <path
         d="m -116.28697,184.20425 v -4.72783 h 1.09416 v 3.8363 h 2.37067 v 0.89153 z"
         style="-inkscape-font-specification:Montserrat"
         id="path339" />
      <path
         d="m -112.80213,184.20425 2.10727,-4.72783 h 1.08064 l 2.11402,4.72783 h -1.14819 l -1.72903,-4.174 h 0.43226 l -1.7358,4.174 z m 1.05363,-1.0131 0.29043,-0.83075 h 2.43146 l 0.29717,0.83075 z"
         style="-inkscape-font-specification:Montserrat"
         id="path341" />
      <path
         d="m -107.00716,184.20425 v -4.72783 h 0.90504 l 2.78942,3.40404 h -0.43901 v -3.40404 h 1.08065 v 4.72783 h -0.89829 l -2.79618,-3.40404 h 0.43902 v 3.40404 z"
         style="-inkscape-font-specification:Montserrat"
         id="path343" />
      <path
         d="m -101.5499,184.20425 v -4.72783 h 2.147791 q 0.769961,0 1.357564,0.29718 0.587602,0.29042 0.918551,0.81724 0.330948,0.52681 0.330948,1.2495 0,0.71593 -0.330948,1.2495 -0.330949,0.52681 -0.918551,0.82399 -0.587603,0.29042 -1.357564,0.29042 z m 1.09416,-0.89828 h 0.999598 q 0.472784,0 0.81724,-0.17561 0.351211,-0.18236 0.540324,-0.51331 0.195868,-0.33095 0.195868,-0.77671 0,-0.45252 -0.195868,-0.77672 -0.189113,-0.33095 -0.540324,-0.50655 -0.344456,-0.18236 -0.81724,-0.18236 h -0.999598 z"
         style="-inkscape-font-specification:Montserrat"
         id="path345" />
      <path
         d="m -95.971064,184.20425 v -4.72783 h 1.094156 v 4.72783 z"
         style="-inkscape-font-specification:Montserrat"
         id="path347" />
      <path
         d="m -92.20231,184.2853 q -0.567341,0 -1.087402,-0.14859 -0.520062,-0.15534 -0.837503,-0.39849 l 0.371473,-0.82399 q 0.303932,0.21613 0.715929,0.35797 0.418751,0.13508 0.844257,0.13508 0.324194,0 0.520061,-0.0608 0.202622,-0.0675 0.297179,-0.18236 0.09456,-0.11482 0.09456,-0.26341 0,-0.18911 -0.148589,-0.29718 -0.148589,-0.11481 -0.391735,-0.18235 -0.243145,-0.0743 -0.540324,-0.13509 -0.290424,-0.0675 -0.587602,-0.16209 -0.290424,-0.0946 -0.53357,-0.24315 -0.243146,-0.14859 -0.398489,-0.39173 -0.148589,-0.24315 -0.148589,-0.62138 0,-0.40524 0.21613,-0.73619 0.222883,-0.3377 0.661897,-0.53357 0.445767,-0.20262 1.114418,-0.20262 0.445767,0 0.878026,0.10807 0.432259,0.10131 0.763208,0.31068 l -0.337703,0.83075 q -0.330948,-0.18911 -0.661897,-0.27692 -0.330948,-0.0945 -0.648388,-0.0945 -0.317441,0 -0.520062,0.0743 -0.202622,0.0743 -0.290424,0.19587 -0.0878,0.11482 -0.0878,0.27016 0,0.18236 0.148589,0.29718 0.148589,0.10806 0.391735,0.1756 0.243146,0.0676 0.53357,0.13509 0.297178,0.0675 0.587602,0.15534 0.297178,0.0878 0.540324,0.23639 0.243146,0.14859 0.391735,0.39174 0.155343,0.24314 0.155343,0.61461 0,0.39849 -0.222883,0.72944 -0.222884,0.33095 -0.668651,0.53357 -0.439013,0.20262 -1.114418,0.20262 z"
         style="-inkscape-font-specification:Montserrat"
         id="path349" />
      <path
         d="m -89.564063,182.72512 v -0.84426 h 1.911396 v 0.84426 z"
         style="-inkscape-font-specification:Montserrat"
         id="path351" />
      <path
         d="m -86.747626,184.20425 v -4.72783 h 1.094156 v 4.72783 z"
         style="-inkscape-font-specification:Montserrat"
         id="path353" />
      <path
         d="m -84.532304,184.20425 v -4.72783 h 1.094156 v 4.72783 z"
         style="-inkscape-font-specification:Montserrat"
         id="path355" />
    </g>
    <g
       id="g29494"
       transform="matrix(0.74349109,-0.24212216,0.24212216,0.74349109,-93.154899,83.905211)">
      <g
         id="g14463-3-2-3"
         transform="matrix(3.0696994,0.89054572,-0.89054572,3.0696994,927.21561,148.34267)"
         style="stroke-linecap:butt;stroke-linejoin:round">
        <polygon
           style="fill:#3b484a"
           points="60.637,252.066 38.52,283.096 62.011,279.022 72.574,249.043 "
           id="polygon14235-0-8-3"
           transform="matrix(0.02449793,0,0,0.02449793,-247.34003,74.897674)" />
        <path
           style="fill:#b3b3b3;stroke-width:0.0244979"
           d="m -245.9167,83.200391 0.0682,0.710538 -0.62245,0.856376 c -0.14161,0.19483 -0.0983,0.468545 0.0965,0.610156 l 0.56769,0.41262 c 0.12739,0.09264 0.29212,0.109403 0.43476,0.04563 l 1.13473,-0.753656 0.76959,-0.210319 0.0351,0.795219 -1.4501,0.963088 c -0.0151,0.0094 -0.0305,0.01904 -0.0466,0.02718 -0.46102,0.234468 -1.00732,0.191231 -1.42573,-0.11288 l -0.56772,-0.412618 c -0.61068,-0.443878 -0.74641,-1.301879 -0.30254,-1.91261 l 0.62245,-0.856378 z"
           id="path14237-9-1-2"
           inkscape:connector-curvature="0" />
        <g
           id="g14259-2-6-0"
           transform="matrix(0.02449793,0,0,0.02449793,-247.34003,74.897674)">
          <path
             style="fill:#999999"
             d="M 448.854,1.058 448.186,0.893 C 431.919,-3.127 415.475,6.8 411.454,23.067 l 30.12,7.444 z"
             id="path14239-5-0-8"
             inkscape:connector-curvature="0" />
          <path
             style="fill:#999999"
             d="m 510.852,79.816 -0.186,-0.662 C 506.127,63.024 489.371,53.629 473.243,58.169 l 8.405,29.866 z"
             id="path14241-4-7-3"
             inkscape:connector-curvature="0" />
          <path
             style="fill:#999999"
             d="m 213.459,144.89 -0.486,0.486 c -11.848,11.848 -11.848,31.058 0,42.906 l 13.544,13.544 21.939,-21.939 z"
             id="path14243-0-1-8"
             inkscape:connector-curvature="0" />
          <path
             style="fill:#999999"
             d="m 259.976,98.372 -0.486,0.486 c -11.848,11.848 -11.848,31.058 0,42.906 l 13.544,13.544 21.939,-21.939 z"
             id="path14245-5-9-0"
             inkscape:connector-curvature="0" />
          <path
             style="fill:#999999"
             d="m 306.493,51.855 -0.486,0.486 c -11.848,11.848 -11.848,31.058 0,42.906 l 13.544,13.544 21.939,-21.939 z"
             id="path14247-9-1-4"
             inkscape:connector-curvature="0" />
          <path
             style="fill:#999999"
             d="m 353.01,5.338 -0.486,0.486 c -11.848,11.848 -11.848,31.058 0,42.906 l 13.544,13.544 21.939,-21.939 z"
             id="path14249-4-1-3"
             inkscape:connector-curvature="0" />
          <path
             style="fill:#999999"
             d="m 479.602,175.808 0.486,-0.486 c 11.848,-11.848 11.848,-31.058 0,-42.906 l -13.544,-13.544 -21.939,21.939 z"
             id="path14251-6-9-2"
             inkscape:connector-curvature="0" />
          <path
             style="fill:#999999"
             d="m 433.084,222.325 0.486,-0.486 c 11.848,-11.848 11.848,-31.058 0,-42.906 l -13.544,-13.544 -21.939,21.939 z"
             id="path14253-9-7-9"
             inkscape:connector-curvature="0" />
          <path
             style="fill:#999999"
             d="m 386.568,268.842 0.486,-0.486 c 11.848,-11.848 11.848,-31.058 0,-42.906 l -13.544,-13.544 -21.939,21.939 z"
             id="path14255-2-5-0"
             inkscape:connector-curvature="0" />
          <path
             style="fill:#999999"
             d="m 340.051,315.359 0.486,-0.486 c 11.848,-11.848 11.848,-31.058 0,-42.906 l -13.544,-13.544 -21.939,21.939 z"
             id="path14257-2-8-0"
             inkscape:connector-curvature="0" />
        </g>
        <path
           style="fill:#b3b3b3;stroke-width:0.0244979"
           d="m -236.01008,75.985235 v 0 c -0.71456,-0.714556 -1.87306,-0.714556 -2.58759,0 l -4.05676,4.056735 0.3609,2.22669 2.22669,0.360904 4.05674,-4.056735 c 0.71455,-0.714556 0.71455,-1.873063 2e-5,-2.587594 z"
           id="path14261-4-9-1"
           inkscape:connector-curvature="0" />
        <path
           style="fill:#d9d9d9;stroke-width:0.0244979"
           d="m -236.60393,76.579089 c -0.38597,-0.385964 -1.01395,-0.385964 -1.39989,0 l -4.05676,4.056711 0.18185,1.218061 1.21806,0.181848 4.05674,-4.056734 c 0.38594,-0.385965 0.38594,-1.013945 0,-1.399886 z"
           id="path14263-7-1-2"
           inkscape:connector-curvature="0" />
        <path
           style="fill:#fbd569;fill-opacity:1;stroke-width:0.0244979"
           d="m -242.65443,80.04197 c -0.53874,-0.538734 -1.41221,-0.538734 -1.95095,0 l -2.18401,2.184015 c -0.27756,0.277561 -0.27756,0.727564 0,1.005125 l 3.0605,3.060502 3.66205,-3.662073 z"
           id="path14275-7-4-9"
           inkscape:connector-curvature="0" />
        <path
           style="fill:#f0be18;fill-opacity:1;stroke-width:0.0244979"
           d="m -246.1837,82.831647 2.18401,-2.184015 c 0.53874,-0.538734 1.41221,-0.538734 1.95094,0 l -0.60568,-0.605687 c -0.53874,-0.538734 -1.41221,-0.538734 -1.95095,0 l -2.18401,2.184015 c -0.27756,0.277562 -0.27756,0.727564 0,1.005126 l 0.60569,0.605687 c -0.27756,-0.277537 -0.27756,-0.72754 0,-1.005126 z"
           id="path14277-5-0-5"
           inkscape:connector-curvature="0" />
        <path
           style="fill:#3b484a;stroke-width:0.0244979"
           d="m -246.39637,81.83294 -1.63455,-0.887705 c -0.23728,-0.303319 -0.34186,-0.681025 -0.29541,-1.063136 0.0467,-0.382261 0.23954,-0.723424 0.54285,-0.960649 0.30333,-0.237257 0.68089,-0.342131 1.06315,-0.295451 0.38227,0.04671 0.65995,0.302312 0.96065,0.542857 l 2.22479,1.779739 c 0.16667,0.213106 0.12905,0.52098 -0.0841,0.687689 -0.2131,0.16672 -0.52101,0.12909 -0.68771,-0.08408 l -2.22478,-1.779716 c -0.15694,-0.200566 -0.44781,-0.236124 -0.64839,-0.07927 -0.0972,0.07602 -0.15895,0.185324 -0.17394,0.307789 -0.0149,0.122465 0.0187,0.243433 0.0946,0.340615 l 1.51549,0.785825 z"
           id="path14279-4-3-4"
           sodipodi:nodetypes="cccssscsccscccc"
           inkscape:connector-curvature="0" />
        <path
           style="fill:#3b484a;stroke-width:0.0244979"
           d="m -244.29788,84.526218 c -0.0484,0 -0.0969,-0.01847 -0.13384,-0.05544 -0.0739,-0.07391 -0.0739,-0.193779 0,-0.267689 l 1.34332,-1.343295 c 0.0739,-0.07391 0.19378,-0.07391 0.26767,0 0.0739,0.07391 0.0739,0.193779 0,0.267689 l -1.34332,1.343295 c -0.0369,0.03697 -0.0854,0.05544 -0.13383,0.05544 z"
           id="path14281-8-5-3"
           inkscape:connector-curvature="0" />
        <path
           style="fill:#3b484a;stroke-width:0.0244979"
           d="m -243.22031,84.653681 c -0.0484,0 -0.0969,-0.01847 -0.13383,-0.05544 -0.0739,-0.07391 -0.0739,-0.193778 0,-0.267689 l 0.86824,-0.868231 c 0.0739,-0.07391 0.19378,-0.07391 0.26767,0 0.0739,0.07391 0.0739,0.193779 0,0.267689 l -0.86823,0.868231 c -0.037,0.03697 -0.0854,0.05544 -0.13385,0.05544 z"
           id="path14283-1-8-4"
           inkscape:connector-curvature="0" />
      </g>
      <g
         id="g4581"
         transform="matrix(-0.59024663,0.09791323,0.09791323,0.59024663,153.03887,80.813791)">
        <path
           style="fill:#a67eff;fill-opacity:1;stroke:none;stroke-width:0.264583px;stroke-linecap:butt;stroke-linejoin:miter;stroke-opacity:1"
           d="m 83.748051,152.95995 c -7.268075,-4.45995 -6.424864,-9.4098 -5.490446,-10.22742 0.934421,-0.81762 9.006809,-4.88403 11.213031,-8.64338 2.206226,-3.75934 0.55439,-11.52297 0.55439,-11.52297 0,0 -1.138402,-7.04861 -0.671193,-8.21663 0.467212,-1.16803 2.447849,-6.64413 5.606516,-8.87699 3.15867,-2.23285 10.701391,-2.48979 13.234861,-5.04097 2.53346,-2.55118 6.2891,-8.127057 10.0762,-8.259177 3.7871,-0.132122 10.4181,-0.185081 12.88432,1.651834 2.46621,1.836917 3.65387,7.549613 3.46885,10.241383 -0.18502,2.69176 -3.12495,-2.15755 -5.45106,-2.47775 -2.32611,-0.3202 -4.89499,-0.91139 -5.9466,1.48665 -1.05161,2.39803 -1.05161,8.35496 -2.7e-4,9.99019 1.05123,1.63524 4.76903,6.59839 5.94699,10.65775 1.17796,4.05935 3.73747,3.87231 2.80812,8.75473 -0.92935,4.88242 -4.46643,3.90693 -4.62513,8.42436 -0.15869,4.51743 5.21422,6.03586 2.17735,8.83911 -3.03686,2.80326 -27.33491,6.99221 -33.231855,6.35777 -5.896943,-0.63445 -12.55395,-3.13849 -12.55395,-3.13849 z"
           id="path4458" />
        <path
           sodipodi:type="star"
           style="fill:#ffdc00;fill-opacity:1;stroke:none;stroke-width:2.13543;stroke-linecap:round;stroke-linejoin:round"
           id="path2578"
           inkscape:flatsided="false"
           sodipodi:sides="5"
           sodipodi:cx="206.64851"
           sodipodi:cy="357.10861"
           sodipodi:r1="35.63525"
           sodipodi:r2="21.536913"
           sodipodi:arg1="-1.5707963"
           sodipodi:arg2="-0.9424778"
           inkscape:rounded="0"
           inkscape:randomized="0"
           transform="matrix(0.19147415,0,0,0.19147415,51.778647,74.467009)"
           inkscape:transform-center-y="-0.65156277"
           inkscape:transform-center-x="1.3530041e-06"
           d="m 206.64851,321.47336 12.65908,18.21152 21.23206,6.41184 -13.40831,17.66716 0.46305,22.17426 -20.94588,-7.29262 -20.94587,7.29261 0.46305,-22.17425 -13.40831,-17.66717 21.23205,-6.41183 z" />
        <path
           sodipodi:type="star"
           style="fill:#ffdc00;fill-opacity:1;stroke:none;stroke-width:2.13543;stroke-linecap:round;stroke-linejoin:round"
           id="path2578-5"
           inkscape:flatsided="false"
           sodipodi:sides="5"
           sodipodi:cx="206.64851"
           sodipodi:cy="357.10861"
           sodipodi:r1="35.63525"
           sodipodi:r2="21.536913"
           sodipodi:arg1="-1.5707963"
           sodipodi:arg2="-0.9424778"
           inkscape:rounded="0"
           inkscape:randomized="0"
           transform="matrix(0.19147415,0,0,0.19147415,77.382096,68.220544)"
           inkscape:transform-center-y="-0.65156277"
           inkscape:transform-center-x="1.3530041e-06"
           d="m 206.64851,321.47336 12.65908,18.21152 21.23206,6.41184 -13.40831,17.66716 0.46305,22.17426 -20.94588,-7.29262 -20.94587,7.29261 0.46305,-22.17425 -13.40831,-17.66717 21.23205,-6.41183 z" />
        <path
           sodipodi:type="star"
           style="fill:#ffdc00;fill-opacity:1;stroke:none;stroke-width:2.13543;stroke-linecap:round;stroke-linejoin:round"
           id="path2578-5-0"
           inkscape:flatsided="false"
           sodipodi:sides="5"
           sodipodi:cx="206.64851"
           sodipodi:cy="357.10861"
           sodipodi:r1="35.63525"
           sodipodi:r2="21.536913"
           sodipodi:arg1="-1.5707963"
           sodipodi:arg2="-0.9424778"
           inkscape:rounded="0"
           inkscape:randomized="0"
           transform="matrix(0.19147415,0,0,0.19147415,62.18521,53.849576)"
           inkscape:transform-center-y="-0.65156277"
           inkscape:transform-center-x="1.3530041e-06"
           d="m 206.64851,321.47336 12.65908,18.21152 21.23206,6.41184 -13.40831,17.66716 0.46305,22.17426 -20.94588,-7.29262 -20.94587,7.29261 0.46305,-22.17425 -13.40831,-17.66717 21.23205,-6.41183 z" />
        <path
           sodipodi:type="star"
           style="fill:#ffdc00;fill-opacity:1;stroke:none;stroke-width:2.13543;stroke-linecap:round;stroke-linejoin:round"
           id="path2578-5-0-3"
           inkscape:flatsided="false"
           sodipodi:sides="5"
           sodipodi:cx="206.64851"
           sodipodi:cy="357.10861"
           sodipodi:r1="35.63525"
           sodipodi:r2="21.536913"
           sodipodi:arg1="-1.5707963"
           sodipodi:arg2="-0.9424778"
           inkscape:rounded="0"
           inkscape:randomized="0"
           transform="matrix(0.19147415,0,0,0.19147415,75.683143,36.805956)"
           inkscape:transform-center-y="-0.65156277"
           inkscape:transform-center-x="1.3530041e-06"
           d="m 206.64851,321.47336 12.65908,18.21152 21.23206,6.41184 -13.40831,17.66716 0.46305,22.17426 -20.94588,-7.29262 -20.94587,7.29261 0.46305,-22.17425 -13.40831,-17.66717 21.23205,-6.41183 z" />
      </g>
      <path
         sodipodi:type="star"
         style="fill:#ffdc00;fill-opacity:1;stroke:none;stroke-width:2.13543;stroke-linecap:round;stroke-linejoin:round"
         id="path4765"
         inkscape:flatsided="false"
         sodipodi:sides="4"
         sodipodi:cx="61.362644"
         sodipodi:cy="572.57086"
         sodipodi:r1="63.608246"
         sodipodi:r2="7.6329894"
         sodipodi:arg1="-1.6055046"
         sodipodi:arg2="-0.82010644"
         inkscape:rounded="0"
         inkscape:randomized="0"
         transform="matrix(0.09095052,0,0,0.09095052,128.44979,106.48363)"
         d="m 59.155355,509.00093 7.414082,57.98855 58.363143,3.37409 -57.988553,7.41409 -3.374094,58.36314 -7.414082,-57.98856 -58.3631432,-3.37409 57.9885542,-7.41408 z" />
      <path
         sodipodi:type="star"
         style="fill:#ffdc00;fill-opacity:1;stroke:none;stroke-width:2.13543;stroke-linecap:round;stroke-linejoin:round"
         id="path4765-3"
         inkscape:flatsided="false"
         sodipodi:sides="4"
         sodipodi:cx="61.362644"
         sodipodi:cy="572.57086"
         sodipodi:r1="63.608246"
         sodipodi:r2="7.6329894"
         sodipodi:arg1="-1.6055046"
         sodipodi:arg2="-0.82010644"
         inkscape:rounded="0"
         inkscape:randomized="0"
         transform="matrix(0.04501591,0,0,0.04501591,130.27564,163.9123)"
         d="m 59.155355,509.00093 7.414082,57.98855 58.363143,3.37409 -57.988553,7.41409 -3.374094,58.36314 -7.414082,-57.98856 -58.3631432,-3.37409 57.9885542,-7.41408 z" />
      <path
         sodipodi:type="star"
         style="fill:#ffdc00;fill-opacity:1;stroke:none;stroke-width:2.13543;stroke-linecap:round;stroke-linejoin:round"
         id="path4765-3-7"
         inkscape:flatsided="false"
         sodipodi:sides="4"
         sodipodi:cx="61.362644"
         sodipodi:cy="572.57086"
         sodipodi:r1="63.608246"
         sodipodi:r2="7.6329894"
         sodipodi:arg1="-1.6055046"
         sodipodi:arg2="-0.82010644"
         inkscape:rounded="0"
         inkscape:randomized="0"
         transform="matrix(0.06338975,0,0,0.06338975,115.01508,126.64422)"
         d="m 59.155355,509.00093 7.414082,57.98855 58.363143,3.37409 -57.988553,7.41409 -3.374094,58.36314 -7.414082,-57.98856 -58.3631432,-3.37409 57.9885542,-7.41408 z" />
      <path
         sodipodi:type="star"
         style="fill:#ffdc00;fill-opacity:1;stroke:none;stroke-width:2.13543;stroke-linecap:round;stroke-linejoin:round"
         id="path4765-3-7-8"
         inkscape:flatsided="false"
         sodipodi:sides="4"
         sodipodi:cx="61.362644"
         sodipodi:cy="572.57086"
         sodipodi:r1="63.608246"
         sodipodi:r2="7.6329894"
         sodipodi:arg1="-1.6055046"
         sodipodi:arg2="-0.82010644"
         inkscape:rounded="0"
         inkscape:randomized="0"
         transform="matrix(0.04042245,0,0,0.04042245,137.52279,157.56805)"
         d="m 59.155355,509.00093 7.414082,57.98855 58.363143,3.37409 -57.988553,7.41409 -3.374094,58.36314 -7.414082,-57.98856 -58.3631432,-3.37409 57.9885542,-7.41408 z" />
    </g>
    <g
       aria-label="Magic Harvest"
       transform="matrix(1.2838694,0,0,1.2838694,12.621964,-15.143092)"
       id="text2710"
       style="font-size:10.5833px;white-space:pre;stroke-width:0.264583">
      <path
         d="M 7.0287396,123.11079 H 6.2032423 v -0.8255 H 5.3777449 v -0.8255 H 4.5522475 v 5.77848 H 3.7267501 v -7.42947 h 0.8254974 v 0.82549 h 0.8254974 v 0.8255 h 0.8254974 v 0.8255 h 0.8254973 z m 0.8254974,-2.4765 h 0.8254974 v -0.82549 h 0.8254973 v 7.42947 H 8.6797344 v -5.77848 H 7.854237 Z m 0,0.8255 v 0.8255 H 7.0287396 v -0.8255 z"
         style="-inkscape-font-specification:'C&amp;C Red Alert [LAN]'"
         id="path2765" />
      <path
         d="m 13.632704,121.45979 v 0.8255 h 0.825498 v 4.95298 h -0.825498 v -0.82549 h -0.825497 v -0.8255 h 0.825497 v -0.8255 h -2.476492 v -0.8255 h 2.476492 v -1.65099 h -2.476492 v -0.8255 z m -0.825497,5.77848 h -1.650995 v -0.82549 h -0.825497 v -1.651 h 0.825497 v 1.651 h 1.650995 z m -1.650995,-4.95298 v 0.8255 h -0.825497 v -0.8255 z"
         style="-inkscape-font-specification:'C&amp;C Red Alert [LAN]'"
         id="path2767" />
      <path
         d="m 17.749598,122.28529 h -1.650994 v -0.8255 h 1.650994 v 0.8255 h 0.825498 v -0.8255 h 0.825497 v 6.60398 h -0.825497 v -1.65099 h -0.825498 v -0.8255 h 0.825498 v -2.47649 h -0.825498 z m -2.476492,4.12749 v -4.12749 h 0.825498 v 4.12749 z m 3.30199,1.65099 v 0.8255 h -3.30199 v -0.8255 z m -0.825498,-1.65099 v 0.82549 h -1.650994 v -0.82549 z"
         style="-inkscape-font-specification:'C&amp;C Red Alert [LAN]'"
         id="path2769" />
      <path
         d="m 21.040994,121.45979 v 5.77848 h -0.825497 v -5.77848 z m 0,-1.65099 v 0.82549 h -0.825497 v -0.82549 z"
         style="-inkscape-font-specification:'C&amp;C Red Alert [LAN]'"
         id="path2771" />
      <path
         d="m 21.855895,126.41278 v -4.12749 h 0.825497 v 4.12749 z m 3.301989,-3.30199 h -0.825497 v -0.8255 h -1.650995 v -0.8255 h 1.650995 v 0.8255 h 0.825497 z m -0.825497,3.30199 v 0.82549 h -1.650995 v -0.82549 z m 0.825497,-0.8255 v 0.8255 h -0.825497 v -0.8255 z"
         style="-inkscape-font-specification:'C&amp;C Red Alert [LAN]'"
         id="path2773" />
      <path
         d="m -0.83466024,130.23203 v 3.30199 H 3.2928266 v -3.30199 H 4.118324 v 7.42948 H 3.2928266 v -3.30199 h -4.12748684 v 3.30199 H -1.6601576 v -7.42948 z"
         style="-inkscape-font-specification:'C&amp;C Red Alert [LAN]'"
         id="path2775" />
      <path
         d="m 8.2457967,131.88303 v 0.82549 h 0.8254974 v 4.95299 H 8.2457967 v -0.8255 H 7.4202993 v -0.8255 h 0.8254974 v -0.82549 H 5.7693046 v -0.8255 h 2.4764921 v -1.651 H 5.7693046 v -0.82549 z m -0.8254974,5.77848 H 5.7693046 v -0.8255 H 4.9438072 v -1.65099 h 0.8254974 v 1.65099 h 1.6509947 z m -1.6509947,-4.95299 v 0.8255 H 4.9438072 v -0.8255 z"
         style="-inkscape-font-specification:'C&amp;C Red Alert [LAN]'"
         id="path2777" />
      <path
         d="m 10.711696,131.88303 v 0.82549 h 0.825497 v 0.8255 h -0.825497 v 4.12749 H 9.8861986 v -5.77848 z m 1.650995,0.82549 h -0.825498 v -0.82549 h 0.825498 z"
         style="-inkscape-font-specification:'C&amp;C Red Alert [LAN]'"
         id="path2779" />
      <path
         d="m 15.67526,137.66151 h -0.825497 v -1.651 h -0.825497 v -2.47649 h -0.825498 v -1.65099 h 0.825498 v 1.65099 h 0.825497 v 2.47649 h 0.825497 z m 0,-1.651 v -2.47649 h 0.825498 v 2.47649 z m 1.650995,-4.12748 v 1.65099 h -0.825497 v -1.65099 z"
         style="-inkscape-font-specification:'C&amp;C Red Alert [LAN]'"
         id="path2781" />
      <path
         d="m 18.162335,136.83601 v -4.12749 h 0.825497 v 1.651 h 2.476492 v -1.651 h -2.476492 v -0.82549 h 2.476492 v 0.82549 h 0.825498 v 2.4765 h -3.30199 v 1.65099 h 2.476492 v 0.8255 h -2.476492 v -0.8255 z m 4.127487,0 h -0.825498 v -0.8255 h 0.825498 z"
         style="-inkscape-font-specification:'C&amp;C Red Alert [LAN]'"
         id="path2783" />
      <path
         d="m 23.951398,134.35952 h 2.476492 v 0.8255 h 0.825498 v 1.65099 H 26.42789 v -1.65099 h -2.476492 v -0.8255 h -0.825497 v -1.651 h 0.825497 z m 3.30199,-0.8255 H 26.42789 v -0.8255 h -2.476492 v -0.82549 h 2.476492 v 0.82549 h 0.825498 z m -3.30199,3.30199 h -0.825497 v -0.8255 h 0.825497 v 0.8255 h 2.476492 v 0.8255 h -2.476492 z"
         style="-inkscape-font-specification:'C&amp;C Red Alert [LAN]'"
         id="path2785" />
      <path
         d="m 29.719286,130.23203 v 1.651 h 0.825497 v 0.82549 h -0.825497 v 4.12749 h 0.825497 v 0.8255 h -1.650994 v -4.95299 h -0.825498 v -0.82549 h 0.825498 v -1.651 z"
         style="-inkscape-font-specification:'C&amp;C Red Alert [LAN]'"
         id="path2787" />
    </g>
  </g>
</svg>
